<?xml version="1.0" encoding="utf-8"?>
<!-- Generator: Adobe Adobe Illustrator 24.2.0, SVG Export Plug-In . SVG Version: 6.00 Build 0)  -->
<svg version="1.1" id="Layer_1" xmlns="http://www.w3.org/2000/svg" xmlns:xlink="http://www.w3.org/1999/xlink" x="0px" y="0px"
	 viewBox="0 0 1920 1080" style="enable-background:new 0 0 1920 1080;" xml:space="preserve">
<style type="text/css">
	.st0{fill:#FFFFFF;}
	.st1{fill:#050504;}
	.st2{fill:#060606;}
	.st3{fill:#070707;}
	.st4{fill:#080808;}
	.st5{fill:#0A0A0A;}
	.st6{fill:#FCFCFC;}
	.st7{fill:#F2D45F;}
	.st8{fill:#FCFCFB;}
	.st9{fill:#F5F2E6;}
	.st10{fill:#D4CEB5;}
	.st11{fill:#E9E9E9;}
	.st12{fill:#070603;}
	.st13{fill:#090803;}
</style>
<g>
	<g>
		<path class="st0" d="M1335.07,979.63c-485.02,0-969.05-0.02-1453.09,0.18c-7.36,0-9.02-1.65-9.01-9
			c0.22-292.59,0.22-585.18,0-877.77c-0.01-7.35,1.66-9,9.01-9c723.44,0.2,1446.88,0.2,2170.31,0c7.36,0,9.02,1.65,9.02,9
			c-0.22,292.59-0.22,585.18,0,877.77c0.01,7.35-1.66,9.01-9.02,9C1813.55,979.59,1574.8,979.63,1335.07,979.63z"/>
		<path class="st1" d="M771.66,686.01c-12.36-10.76-19.95-23.05-19.83-39.38c0.11-16.21,11.45-26.27,21.48-38.79
			c-6.08,0-10.72-0.21-15.34,0.04c-18.01,0.95-35.98,0.77-53.75-2.53c-25.41-4.71-42.19-23.6-40.44-44.98
			c0.66-8.03,3.69-15.29,8.17-21.72c22.47-32.2,51.5-53.27,92.62-53.32c1.84,0,3.89,0.48,3.94,0.43
			c-9.21-26.9-15.53-52.56-3.28-79.1c4.22-9.14,9.43-17.88,14.81-26.41c16.58-26.29,57.67-31.61,79.55-9.64
			c11.7,11.75,21.82,25.12,32.2,38.11c3.3,4.13,5.03,4.53,8.5,0.42c15.69-18.6,36.24-28.11,60.01-31.77
			c10.3-1.58,20.4-4.48,30.68-6.28c20.07-3.51,38.22,0.79,54.1,13.93c11.24,9.3,20.2,20.41,26.81,33.34
			c7.6,14.87,7.59,30.04,0.54,45.69c43.23,4.99,76.77,29.98,111.54,52.18c9.41,6.01,17.21,14.05,22.53,24.1
			c8.32,15.72,5.62,30.14-7.02,42.69c-14.2,14.1-32.84,16.54-50.98,20.25c-23.93,4.89-47.97,5.86-71.98,0.37
			c-4.93-1.13-6.91-0.56-5.79,5.48c5.58,30.16-6.8,54.7-35.57,71.59c-24.16,14.18-50.81,11.86-73.81-6.72
			c-13.21-10.67-26.49-21.32-35.58-36.09c-3.18-5.17-5.54-4.59-7.46,1.07c-18.03,53.18-75.42,66-118.87,60.15
			C789.36,697.78,780.28,692.84,771.66,686.01z"/>
		<path class="st2" d="M1335.6,503.37c-1.8-12.81-3.52-24.74-5.14-36.69c-0.86-6.35,1.07-11.37,8.1-12.03
			c6.41-0.6,8.56,3.86,10.28,9.48c8.55,27.97,7.51,57.43,13.65,85.77c0.89,4.11,2.73,9.59-1.63,12.79
			c-4.62,3.39-8.76-0.35-12.18-3.14c-3.92-3.21-5.04,0.29-6.86,2.18c-8.35,8.67-18.61,11.72-30.33,10.24
			c-12.8-1.62-18.01-9.98-14.1-22.3c5.82-18.3,21.85-25.58,38.77-16.92C1339.82,523.05,1336.62,513.63,1335.6,503.37z"/>
		<path class="st3" d="M1514.01,549.08c-4.44,2.88-8.37,5.62-12.95,6c-12.82,1.08-25.72,0.91-35.7,11.53
			c-3.05,3.25-8.16,1.34-11.91-0.99c-8.34-5.19-13.84-21.01-10.74-30.51c1.39-4.26,3.53-8.13,8.66-7.78
			c4.87,0.33,5.86,4.38,6.51,8.45c0.45,2.82,1.24,5.59,2.54,11.27c6.8-12.52,16.75-12.62,27.31-12.86
			c10.06-0.23,17.32-8.52,26.47-11.9c7.88-2.91,10.71-1.14,10.73,7.37C1524.94,537.87,1520.81,543.84,1514.01,549.08z"/>
		<path class="st4" d="M287.54,589.68c-2.56,0.83-4.36,1.6-6.23,2.14c-4.64,1.34-8.49,0.31-10.64-4.3
			c-2.46-5.29,0.24-9.08,4.65-11.23c6.9-3.35,14.15-5.99,22.04-9.26c-5.1-5.38-10.04-10.05-14.35-15.24
			c-9.28-11.18-6.71-24.84,5.82-32.27c9.54-5.66,19.97-5.26,30.43-4.15c3.76,0.4,5.88,2.95,5.86,6.64c-0.03,4.11-2.3,6.8-6.6,6.91
			c-5.55,0.15-11.08,0.1-16.44,1.9c-8.64,2.9-9.68,6.48-3.56,12.96c4.02,4.27,8.51,8.15,12.11,12.74
			c8.01,10.22,6.09,19.73-5.3,25.88C299.95,585.32,293.98,587.18,287.54,589.68z"/>
		<path class="st2" d="M1386.53,536.55c-2.23-11.29,1.47-18.17,11.79-21.31c11.98-3.65,25.55,2.35,28.86,13.33
			c3.09,10.25,2.82,20.42-2.62,30.15c-6.17,11.01-12.09,13.7-23.98,10.27c-14.06-4.05-19.91-11-19.25-22.89
			C1381.52,542.39,1382.33,539.01,1386.53,536.55z"/>
		<path class="st4" d="M1558.9,560.4c-7.29,6.43-10.9,2.89-12.9-4.09c-2.35-8.2,0.39-15.52,5.06-22.06
			c11.46-16.04,38.24-19.19,53.26-6.44c2.74,2.33,5.53,4.82,6.58,8.35c1.55,5.23,4.06,11-1.38,15.34
			c-5.65,4.51-10.25,0.71-14.7-2.88C1578.39,535.34,1566.14,539.18,1558.9,560.4z"/>
		<path class="st2" d="M476.35,532.26c7.6,11.34,6.21,24.12-3.02,33.14c-8.04,7.86-21.53,8.58-31.48,1.67
			c-7.5-5.21-10.19-13.67-4.9-20.16c5.64-6.91,11.65-14.07,20.53-17.3C463.82,527.31,470.2,526.73,476.35,532.26z"/>
		<path class="st4" d="M335.78,546.36c1.15-6.34,3.07-11.5,6.95-15.66c4.8-5.15,13.95-5.84,17.33-0.97
			c4.1,5.92,0.66,8.29-4.76,11.65c-4.61,2.86-3.58,9.81-2.81,15.48c8.24-0.83,15.31-3.84,21.61-8.72c2.73-2.11,5.76-3.99,8.59-0.85
			c2.27,2.52,0.86,5.4-0.86,8c-5.82,8.8-12.2,17.06-22.95,20.07c-14.8,4.15-25.3-4.26-24.64-19.58
			C334.35,552.89,335.12,550.03,335.78,546.36z"/>
		<path class="st2" d="M545.11,527.94c3.15,8.29,6,15.87,8.73,23.5c0.98,2.73,2.06,5.52,2.37,8.36c0.58,5.44,1.84,11.7-5.13,14.11
			c-7.21,2.49-11.73-2.73-13.72-8.04c-7.06-18.84-12.74-38.15-14.94-58.28c-0.43-3.92,0.72-7.22,5.13-8.11
			c4.24-0.85,6.91,1.54,8.38,5.12C539.02,512.1,541.84,519.7,545.11,527.94z"/>
		<path class="st5" d="M507.82,512.56c3.55,12.6,6.87,24.5,9.94,36.46c1.87,7.27,2.37,16.42-5.3,18.64
			c-8.28,2.4-11.93-6.22-13.49-13.38c-2.82-13.01-5.32-26.11-7.2-39.28c-0.73-5.08-2.14-12.13,5.56-13.66
			C505.18,499.79,505.47,507.01,507.82,512.56z"/>
		<path class="st5" d="M409.78,572.03c-7.1,6.8-10.81,3.76-12.93-3.44c-2.62-8.9-2.57-18.1-1.56-27.14
			c0.79-7.01,5.29-11.75,12.41-13.4c6.18-1.43,11.04,1.33,14.48,5.96c4,5.38,2.13,11.73-3.83,12.05c-9.35,0.52-8.29,6.06-8.42,11.71
			C409.84,562.3,410.14,566.83,409.78,572.03z"/>
		<path class="st6" d="M976.47,396.1c5-0.92,9.16-1.74,13.34-2.44c26.43-4.41,53.87,11.7,62.37,36.89
			c2.97,8.82,2.02,17.27-4.16,24.85c-3.07,3.77-6.12,7.75-8.19,12.11c-4.92,10.36,1.13,21.39,12.47,20.5
			c48.56-3.82,83.47,25.33,120.77,48.69c7.57,4.74,15.05,12.64,13.42,21.31c-1.78,9.47-11.54,14.27-21.19,16.54
			c-30.51,7.18-61,10.63-91.83,1.29c-17.05-5.16-32.24,8.23-30.4,26.22c0.43,4.2,1.21,8.42,2.37,12.47
			c4.96,17.4-4.5,28.74-16.48,38.73c-11.83,9.87-25.31,14.08-39.96,7.05c-13.68-6.57-23.94-17.7-35.45-28.62
			c9.71-3.1,18.56-5.75,27.31-8.74c34.28-11.73,49.86-37.35,51.84-71.93c3.44-59.85-27.23-99.15-86.36-111.95
			c-11.22-2.43-22.43-4.69-33.73-0.34c-1.81,0.7-4.09,1.02-5.21-0.95c-1.25-2.18,1.12-3.47,2.15-4.97
			c13.93-20.19,32.97-32.01,57.48-34.87C969.91,397.61,972.77,396.83,976.47,396.1z"/>
		<path class="st7" d="M821.05,570.51c-1.09-0.27-1.56-0.57-1.96-1.56c-3.82-7.67-6.82-15.21-9.28-23.73
			c-2.21-22.19,3.86-41.9,13.96-60.52c3.96-7.29,10.13-12.81,17.57-16.56c15.48-7.81,31.54-13.94,48.92-16.17
			c3.62-0.46,5.37-1.39,5.93,3.95c1.26,12.2,10.25,15.96,21.02,9.62c1.95-1.15,3.64-2.97,6.14-2.52
			c33.09,6.04,65.05,13.92,79.72,49.53c0.25,0.6,0.38,1.24,0.58,2.62c4.85,25.25,3.4,48.95-9.44,72.01
			c-0.36,0.79-0.54,0.68-0.44,0.69c-0.63,0.41-1.22,0.97-1.84,2.27c-14.14,12.49-31.98,20.87-48.46,17.63
			c-20.03-3.94-39.6,2.28-59.13-2.9c-22.8-6.04-43.5-15.51-61.38-31.91C822.41,571.73,822.01,571.2,821.05,570.51z"/>
		<path class="st8" d="M796.29,669.72c-4.35-2.99-8.47-5.24-11.59-8.46c-8.38-8.64-8.82-15.54-1.62-25.12
			c5.1-6.77,10.77-13.11,16.3-19.54c6.7-7.79,9.71-16.22,4.57-25.98c-4.92-9.34-12.96-12.12-23.05-10.69
			c-19.17,2.72-38.46,2.7-57.75,1.85c-8.87-0.39-17.51-1.78-25.12-6.99c-9.51-6.51-11.27-11.36-5.27-21.28
			c12.16-20.07,29.97-33.33,52.45-39.92c8.73-2.56,17.79-4.07,26.76-5.72c10.48-1.94,14.44-9.5,8.4-18.33
			c-2.64-3.87-1.53-4.12,1.62-5.79c3.58-1.91,4.21-5.07,2.32-9.14c-8.65-18.69-8.77-38.11-2.08-57.09
			c3.41-9.67,9.34-18.65,15.19-27.23c10.71-15.7,37.21-16.77,49.36-2.38c8,9.47,15.76,19.15,23.56,28.79
			c1.84,2.27,3.67,4.62,5.1,7.16c6.16,10.9,5.37,12.46-6.63,15.13c-11.8,2.62-22.97,7.15-34.27,11.39
			c-38.36,14.39-63.98,99.11-29.74,134.33c21.93,22.55,48.55,35.83,78.89,42.39c10.51,2.27,11.03,2.63,5.19,11.99
			c-9.24,14.83-20.92,26.14-39.27,29.7C832.01,672.21,814.75,678.12,796.29,669.72z"/>
		<path class="st9" d="M994.53,587.88c-0.76-1.16-1.33-2.67-0.83-3.63c10.91-21.08,10.83-43.82,10.11-67.48
			C1011.48,541.13,1011.72,565.44,994.53,587.88z"/>
		<path class="st10" d="M809.38,545.34c5.55,5.74,6.79,14.02,9.62,22.4C812.65,562.4,810.34,554.52,809.38,545.34z"/>
		<path class="st10" d="M820.79,570.76c0.37-0.11,0.93,0.27,1.7,1.13C822.12,571.99,821.55,571.62,820.79,570.76z"/>
		<path class="st9" d="M992.37,590.44c-0.35-0.59-0.11-1.47,0.81-2.46C993.57,588.63,993.26,589.39,992.37,590.44z"/>
		<path class="st11" d="M1321.87,545.56c4.54-1.42,7.25,3.17,6.76,3.93c-2.61,4.03-6.86,5.6-11.91,4.52
			C1316.47,550.25,1318.75,548.07,1321.87,545.56z"/>
		<path class="st11" d="M1396.64,537.95c4.09-2.03,8.22-4.54,10.32,0.65c2.17,5.35,1.23,11.23-3.31,14.96
			c-3.19,2.62-7.2,1-8.04-3.36C1394.88,546.39,1393.37,542.24,1396.64,537.95z"/>
		<path class="st10" d="M459.26,547.71c5.54-2.09,4.25,0.54,3.16,3.23c-1.21,2.97-3.28,5.05-6.47,4.06
			c-3.11-0.97-0.75-3.01,0.04-4.36C456.59,549.62,457.77,548.93,459.26,547.71z"/>
		<path class="st12" d="M865.58,542.35c5.83-2.89,8.18,0.47,10.82,4.14c7.06,9.84,13.1,11.66,24.34,7.26
			c8.85-3.46,16.59-8.91,24.21-14.46c4.3-3.13,9.26-5.17,13.27-1.36c4.06,3.84,2.3,8.79-0.8,13.26
			c-12.25,17.65-28.84,25.81-50.29,22.9c-12.46-1.69-21.58-10.7-24.17-22.39C862.2,548.26,862.32,545.3,865.58,542.35z"/>
		<path class="st13" d="M919.73,509.83c-4.88,1.93-7.63,0.04-9.31-3.64c-1.87-4.09-0.07-7.77,2.25-10.94
			c9.7-13.25,41.84-12.53,51.07,1.05c3.88,5.7,2.83,11.75-1,16.39c-5.17,6.26-8.74-1.07-12.07-3.26
			C939.41,502.03,930.35,501.68,919.73,509.83z"/>
		<path class="st13" d="M862.05,476.29c8.93,0.28,15.37,3.13,18.53,11.27c1.25,3.22,0.34,5.87-2.07,7.86
			c-2.08,1.72-4.7,2.58-7.19,0.63c-8.34-6.52-15.16-0.59-22.19,2.77c-1.97,0.94-3.47,2.93-5.06,4.56
			c-3.93,4.03-8.56,9.32-14.03,5.08c-6.22-4.82-2.42-11.38,1.01-16.61C838.1,481.07,849.22,477.72,862.05,476.29z"/>
	</g>
</g>
</svg>
