<svg xmlns="http://www.w3.org/2000/svg" xmlns:xlink="http://www.w3.org/1999/xlink" width="1366" zoomAndPan="magnify" viewBox="0 0 1024.5 576" height="768" preserveAspectRatio="xMidYMid meet" version="1.0"><path stroke-linecap="butt" transform="matrix(1.666135, 0.747058, -0.747058, 1.666135, 34.50721, 120.543064)" fill="none" stroke-linejoin="miter" d="M 1.608634 4.79996 L 1.609054 24.001212 L 12.050508 23.999113 C 14.099702 23.999342 15.648054 23.75055 16.622462 23.283169 C 18.529876 22.308357 19.530893 20.483303 19.529781 18.488633 C 19.531398 16.134032 18.029043 14.247463 15.736976 13.444122 C 17.508489 12.558379 18.30788 11.31373 18.306458 9.62164 C 18.306549 8.325091 17.784764 7.187517 16.73134 6.213293 C 15.70323 5.27461 14.182483 4.800642 12.159138 4.800544 Z M 8.419069 8.020188 L 9.555746 8.019284 C 10.69047 8.019255 11.35529 8.262743 11.854089 9.014404 C 12.104061 9.399355 12.213952 9.790848 12.213728 10.318461 C 12.214079 11.286581 11.631803 12.037661 10.99658 12.341237 C 10.665469 12.449844 10.218575 12.556441 9.698569 12.557495 L 8.418311 12.557132 Z M 8.418242 15.715202 L 9.752151 15.714954 C 11.774155 15.769576 12.767796 16.662758 12.767059 18.292515 C 12.767607 19.982652 11.720195 20.841475 9.805025 20.842109 L 8.419419 20.842092 Z M 8.418242 15.715202 " stroke="#ffffff" stroke-width="1.038787" stroke-opacity="1" stroke-miterlimit="4"/><path stroke-linecap="butt" transform="matrix(1.554789, 0.957461, -0.957461, 1.554789, 87.394197, 148.099907)" fill="none" stroke-linejoin="miter" d="M 8.337962 4.800454 L 0.223099 24.000294 L 7.202844 24.000782 L 8.337976 21.03808 L 15.460813 21.038383 L 16.535564 23.999416 L 23.547964 23.999894 L 15.4608 4.800758 Z M 11.908286 11.116318 L 14.018268 17.047644 L 9.751825 17.047012 Z M 11.908286 11.116318 " stroke="#ffffff" stroke-width="1.038787" stroke-opacity="1" stroke-miterlimit="4"/><path stroke-linecap="butt" transform="matrix(1.492532, 1.051879, -1.051879, 1.492532, 145.394905, 182.309094)" fill="none" stroke-linejoin="miter" d="M 7.425374 4.557481 C 3.570383 4.55768 0.832367 6.937486 0.831134 10.508211 C 0.831283 12.368933 1.548465 14.025295 4.238999 15.607365 C 6.593292 16.994568 7.202224 17.405536 7.20269 18.156343 C 7.20279 18.847212 6.539099 19.346362 5.180492 19.345962 C 3.543582 19.348027 2.103121 18.685585 0.750343 17.765058 L 0.751524 22.917486 C 2.469538 23.892055 4.375659 24.223701 6.594256 24.222586 C 9.831987 24.222954 12.133454 23.113939 13.187929 21.227071 C 13.714475 20.314222 13.958421 19.375459 13.958571 18.488124 C 13.958255 16.575175 12.990782 14.857044 9.859919 13.140377 C 7.703591 11.948658 7.093326 11.394683 7.094809 10.650354 C 7.094359 10.014692 7.703109 9.433871 8.670533 9.432539 C 9.913995 9.432956 11.470384 10.285885 13.132324 11.867905 L 13.134208 6.742106 C 11.719844 5.414824 9.500964 4.557698 7.425374 4.557481 Z M 7.425374 4.557481 " stroke="#ffffff" stroke-width="1.038787" stroke-opacity="1" stroke-miterlimit="4"/><path stroke-linecap="butt" transform="matrix(1.201627, 1.374843, -1.374843, 1.201627, 195.419349, 217.185823)" fill="none" stroke-linejoin="miter" d="M 1.610052 4.800639 L 1.609144 24.000904 L 15.702942 23.999442 L 15.703538 19.678446 L 8.418562 19.678506 L 8.419162 16.440023 L 15.155334 16.440472 L 15.154319 12.118069 L 8.419758 12.119027 L 8.419888 9.12164 L 15.568418 9.121657 L 15.569014 4.800661 Z M 1.610052 4.800639 " stroke="#ffffff" stroke-width="1.038787" stroke-opacity="1" stroke-miterlimit="4"/><path stroke-linecap="butt" transform="matrix(1.068924, 1.480372, -1.480372, 1.068924, 236.422814, 264.575465)" fill="none" stroke-linejoin="miter" d="M 1.609152 4.801307 L 1.609599 24.000772 L 10.029538 24.00096 C 12.159332 24.000451 13.795421 23.865104 14.843762 23.553403 C 18.833559 22.478891 21.079315 18.345479 21.078251 14.579293 C 21.078741 11.867069 20.139676 9.542457 18.252482 7.628294 C 16.372227 5.719141 13.681875 4.800346 10.111663 4.800427 Z M 8.419094 9.399243 L 9.306179 9.398573 C 11.577222 9.399784 12.795137 10.015328 13.627271 11.563474 C 14.047047 12.341545 14.26268 13.307325 14.261933 14.47045 C 14.261806 16.966563 13.187279 18.407189 12.024208 18.928942 C 11.442478 19.179125 10.637596 19.347337 9.7244 19.347624 L 8.418775 19.346892 Z M 8.419094 9.399243 " stroke="#ffffff" stroke-width="1.038787" stroke-opacity="1" stroke-miterlimit="4"/><path stroke-linecap="butt" transform="matrix(1.515201, 1.018953, -1.018953, 1.515201, 276.119937, 337.88646)" fill="none" stroke-linejoin="miter" d="M 1.913832 4.799897 L 1.915048 24.000325 L 8.723607 24.000256 L 8.723584 4.801603 Z M 1.913832 4.799897 " stroke="#ffffff" stroke-width="1.038787" stroke-opacity="1" stroke-miterlimit="4"/><path stroke-linecap="butt" transform="matrix(1.767078, 0.459929, -0.459929, 1.767078, 303.29309, 356.600256)" fill="none" stroke-linejoin="miter" d="M 1.609816 4.800897 L 1.608786 23.999963 L 8.419599 24.000144 L 8.419406 14.945701 L 16.784456 24.000378 L 22.715241 23.999711 L 22.71627 4.800645 L 15.898708 4.80001 L 15.899496 13.916194 L 7.47886 4.800825 Z M 1.609816 4.800897 " stroke="#ffffff" stroke-width="1.038787" stroke-opacity="1" stroke-miterlimit="4"/><path stroke-linecap="butt" transform="matrix(1.825952, 0.000000000000000113, -0.000000000000000113, 1.825952, 396.506081, 367.728223)" fill="none" stroke-linejoin="miter" d="M 0.276917 4.799668 L 8.196587 23.999841 L 13.713829 23.999841 L 21.436684 4.799668 L 15.237007 4.799668 L 11.551002 14.668236 L 7.64251 4.799668 Z M 0.276917 4.799668 " stroke="#ffffff" stroke-width="1.038787" stroke-opacity="1" stroke-miterlimit="4"/><path stroke-linecap="butt" transform="matrix(1.797212, -0.322692, 0.322692, 1.797212, 450.85181, 363.789041)" fill="none" stroke-linejoin="miter" d="M 1.913329 4.801412 L 1.913376 23.999996 L 8.723145 23.999015 L 8.723098 4.800432 Z M 1.913329 4.801412 " stroke="#ffffff" stroke-width="1.038787" stroke-opacity="1" stroke-miterlimit="4"/><path stroke-linecap="butt" transform="matrix(1.424972, -1.141733, 1.141733, 1.424972, 483.951719, 357.270096)" fill="none" stroke-linejoin="miter" d="M 11.443035 4.557291 C 3.077125 4.556691 0.751049 10.867466 0.749994 14.498818 C 0.751304 19.875519 4.767955 24.223194 11.299979 24.223754 C 13.680121 24.222867 15.264347 23.891291 17.839874 22.640676 L 17.839125 17.40697 C 16.123014 18.515568 14.485853 19.043223 12.767568 19.042601 C 9.751296 19.043679 7.560064 17.074174 7.560119 14.330196 C 7.560858 11.564836 9.556195 9.676653 12.437155 9.676811 C 14.235959 9.676156 15.952786 10.284174 17.672117 11.56307 L 17.670742 5.827208 C 15.567254 4.914868 13.768384 4.556363 11.443035 4.557291 Z M 11.443035 4.557291 " stroke="#ffffff" stroke-width="1.038787" stroke-opacity="1" stroke-miterlimit="4"/><path stroke-linecap="butt" transform="matrix(1.638286, -0.806299, 0.806299, 1.638286, 533.108694, 315.067509)" fill="none" stroke-linejoin="miter" d="M 0.581897 4.801674 L 0.581 9.67723 L 6.12052 9.675864 L 6.120716 24.001141 L 12.937494 24.001305 L 12.937298 9.676028 L 18.475874 9.676581 L 18.474851 4.80008 Z M 0.581897 4.801674 " stroke="#ffffff" stroke-width="1.038787" stroke-opacity="1" stroke-miterlimit="4"/><path stroke-linecap="butt" transform="matrix(1.825952, 0, 0, 1.825952, 602.742147, 277.75327)" fill="none" stroke-linejoin="miter" d="M 10.861223 4.557047 C 3.961997 4.557047 0.750915 9.67638 0.750915 14.389246 C 0.750915 19.874399 4.768511 24.223585 10.861223 24.223585 C 17.69841 24.223585 20.971531 19.151317 20.971531 14.389246 C 20.971531 8.987527 17.007417 4.557047 10.861223 4.557047 Z M 7.560291 14.389246 C 7.560291 11.894828 8.811778 10.258268 10.833412 10.258268 C 12.991961 10.258268 14.153598 12.003932 14.153598 14.389246 C 14.153598 16.770282 12.936339 18.515946 10.861223 18.515946 C 8.77755 18.515946 7.560291 16.770282 7.560291 14.389246 Z M 7.560291 14.389246 " stroke="#ffffff" stroke-width="1.038787" stroke-opacity="1" stroke-miterlimit="4"/><path stroke-linecap="butt" transform="matrix(1.823578, 0.0930746, -0.0930746, 1.823578, 664.753104, 277.760035)" fill="none" stroke-linejoin="miter" d="M 1.609962 4.800551 L 1.608824 24.000069 L 8.418468 23.999525 L 8.419055 15.911002 C 10.083488 15.911734 10.745185 16.411339 11.658357 17.934875 C 12.105797 18.685329 12.632708 19.73376 13.215414 21.119933 L 14.431256 23.998953 L 21.187377 23.998998 L 18.64397 18.570116 C 17.643342 16.466255 16.730021 15.107666 15.736252 14.774956 C 17.642947 14.024305 18.78013 12.340425 18.780203 10.453249 C 18.780773 8.323993 17.921034 6.714188 15.818006 5.632671 C 14.763647 5.078135 13.213664 4.80166 11.103637 4.800109 Z M 8.418991 8.019584 L 9.224392 8.019176 C 11.27438 8.019508 12.214329 8.682704 12.212769 10.372884 C 12.214106 11.867988 11.355352 12.753655 9.142554 12.753065 L 8.418558 12.753602 Z M 8.418991 8.019584 " stroke="#ffffff" stroke-width="1.038787" stroke-opacity="1" stroke-miterlimit="4"/><path stroke-linecap="butt" transform="matrix(1.804242, 0.280736, -0.280736, 1.804242, 739.529095, 282.331954)" fill="none" stroke-linejoin="miter" d="M 1.913016 4.801044 L 1.914794 24.000315 L 8.723718 23.999564 L 8.724054 4.799965 Z M 1.913016 4.801044 " stroke="#ffffff" stroke-width="1.038787" stroke-opacity="1" stroke-miterlimit="4"/><path stroke-linecap="butt" transform="matrix(1.771209, 0.443755, -0.443755, 1.771209, 783.958458, 287.523404)" fill="none" stroke-linejoin="miter" d="M 8.338644 4.800586 L 0.223091 24.000784 L 7.202731 23.998806 L 8.337525 21.037125 L 15.458814 21.037151 L 16.534345 24.000827 L 23.547192 23.999352 L 15.459933 4.800612 Z M 11.908454 11.117917 L 14.018528 17.048921 L 9.750943 17.048487 Z M 11.908454 11.117917 " stroke="#ffffff" stroke-width="1.038787" stroke-opacity="1" stroke-miterlimit="4"/><path stroke-linecap="butt" transform="matrix(1.683164, 0.707856, -0.707856, 1.683164, 890.744137, 317.57038)" fill="none" stroke-linejoin="miter" d="M 1.609142 4.80027 L 1.609569 23.999889 L 12.050702 23.999775 C 14.099662 23.999092 15.649174 23.748938 16.62316 23.283628 C 18.52985 22.310031 19.529944 20.483049 19.531417 18.488881 C 19.530552 16.135976 18.02927 14.249297 15.736066 13.442952 C 17.508438 12.558333 18.307384 11.31259 18.307066 9.623197 C 18.306064 8.323983 17.78624 7.187261 16.731304 6.21292 C 15.702814 5.273872 14.180695 4.800027 12.159546 4.800618 Z M 8.418991 8.019143 L 9.556114 8.019005 C 10.691265 8.019697 11.355089 8.2627 11.854219 9.013593 C 12.104973 9.400143 12.213558 9.790784 12.213333 10.320016 C 12.213232 11.285502 11.63086 12.036349 10.99534 12.34075 C 10.665094 12.449465 10.218832 12.558234 9.698317 12.556663 L 8.420169 12.55809 Z M 8.420068 15.71439 L 9.752696 15.715581 C 11.774029 15.770611 12.768294 16.661391 12.767599 18.293191 C 12.767916 19.982584 11.720189 20.840946 9.805509 20.840856 L 8.420061 20.840992 Z M 8.420068 15.71439 " stroke="#ffffff" stroke-width="1.038787" stroke-opacity="1" stroke-miterlimit="4"/><path stroke-linecap="butt" transform="matrix(1.779526, 0.40913, -0.40913, 1.779526, 939.904255, 340.801891)" fill="none" stroke-linejoin="miter" d="M 11.442775 4.557546 C 3.077313 4.557933 0.749858 10.866168 0.750901 14.49883 C 0.751003 19.874623 4.767031 24.223946 11.299568 24.223506 C 13.681042 24.222563 15.264418 23.891456 17.839328 22.640928 L 17.840716 17.405279 C 16.122653 18.515883 14.485721 19.043692 12.769047 19.043253 C 9.75292 19.043036 7.559857 17.075552 7.560656 14.32929 C 7.56131 11.563305 9.555162 9.675884 12.437398 9.676153 C 14.235528 9.67762 15.953631 10.285776 17.671989 11.56338 L 17.670417 5.827928 C 15.568372 4.91512 13.769251 4.556078 11.442775 4.557546 Z M 11.442775 4.557546 " stroke="#ffffff" stroke-width="1.038787" stroke-opacity="1" stroke-miterlimit="4"/></svg>